<mxfile host="app.diagrams.net" modified="2024-01-20T11:55:10.946Z" agent="Mozilla/5.0 (Windows NT 10.0; Win64; x64) AppleWebKit/537.36 (KHTML, like Gecko) Chrome/120.0.0.0 Safari/537.36" etag="29F9-S7N4onLQ5ECDECs" version="22.1.21" type="device">
  <diagram name="Page-1" id="O4i8wLWEhtSY7VSVLwq1">
    <mxGraphModel dx="1994" dy="1749" grid="1" gridSize="10" guides="1" tooltips="1" connect="1" arrows="1" fold="1" page="1" pageScale="1" pageWidth="827" pageHeight="1169" math="0" shadow="0">
      <root>
        <mxCell id="0" />
        <mxCell id="1" parent="0" />
        <mxCell id="ZWzc-dM08lgY2boeNIOO-17" value="" style="rounded=1;whiteSpace=wrap;html=1;fillColor=#030303;fontColor=#ffffff;strokeColor=#FFFFFF;" parent="1" vertex="1">
          <mxGeometry x="-90" y="-50" width="1050" height="510" as="geometry" />
        </mxCell>
        <mxCell id="ZWzc-dM08lgY2boeNIOO-15" value="" style="edgeStyle=orthogonalEdgeStyle;rounded=0;orthogonalLoop=1;jettySize=auto;html=1;strokeColor=#FFFFFF;" parent="1" source="ZWzc-dM08lgY2boeNIOO-1" target="ZWzc-dM08lgY2boeNIOO-7" edge="1">
          <mxGeometry relative="1" as="geometry" />
        </mxCell>
        <mxCell id="ZWzc-dM08lgY2boeNIOO-1" value="" style="rounded=1;whiteSpace=wrap;html=1;fillColor=#647687;strokeColor=#314354;fontColor=#ffffff;" parent="1" vertex="1">
          <mxGeometry x="90" y="200" width="270" height="200" as="geometry" />
        </mxCell>
        <mxCell id="MXx2LoYFOpgTJcokJIh7-3" value="" style="edgeStyle=orthogonalEdgeStyle;rounded=0;orthogonalLoop=1;jettySize=auto;html=1;strokeColor=#FFFFFF;" edge="1" parent="1" source="ZWzc-dM08lgY2boeNIOO-2" target="ZWzc-dM08lgY2boeNIOO-3">
          <mxGeometry relative="1" as="geometry" />
        </mxCell>
        <mxCell id="ZWzc-dM08lgY2boeNIOO-2" value="Python App" style="rounded=1;whiteSpace=wrap;html=1;" parent="1" vertex="1">
          <mxGeometry x="165" y="230" width="120" height="60" as="geometry" />
        </mxCell>
        <mxCell id="ZWzc-dM08lgY2boeNIOO-3" value="Redis Cache" style="rounded=1;whiteSpace=wrap;html=1;fillColor=#d5e8d4;strokeColor=#82b366;" parent="1" vertex="1">
          <mxGeometry x="165" y="320" width="120" height="60" as="geometry" />
        </mxCell>
        <mxCell id="ZWzc-dM08lgY2boeNIOO-14" value="" style="edgeStyle=orthogonalEdgeStyle;rounded=0;orthogonalLoop=1;jettySize=auto;html=1;strokeColor=#FFFFFF;" parent="1" source="ZWzc-dM08lgY2boeNIOO-6" target="ZWzc-dM08lgY2boeNIOO-2" edge="1">
          <mxGeometry relative="1" as="geometry" />
        </mxCell>
        <mxCell id="ZWzc-dM08lgY2boeNIOO-6" value="Node Port Service" style="rounded=1;whiteSpace=wrap;html=1;fillColor=#60a917;strokeColor=#2D7600;fontColor=#ffffff;" parent="1" vertex="1">
          <mxGeometry x="165" y="10" width="120" height="60" as="geometry" />
        </mxCell>
        <mxCell id="ZWzc-dM08lgY2boeNIOO-16" value="" style="edgeStyle=orthogonalEdgeStyle;rounded=0;orthogonalLoop=1;jettySize=auto;html=1;strokeColor=#FFFFFF;" parent="1" source="ZWzc-dM08lgY2boeNIOO-7" target="ZWzc-dM08lgY2boeNIOO-8" edge="1">
          <mxGeometry relative="1" as="geometry" />
        </mxCell>
        <mxCell id="ZWzc-dM08lgY2boeNIOO-7" value="Cluster IP Service" style="rounded=1;whiteSpace=wrap;html=1;fillColor=#6d8764;strokeColor=#3A5431;fontColor=#ffffff;" parent="1" vertex="1">
          <mxGeometry x="440" y="270" width="120" height="60" as="geometry" />
        </mxCell>
        <mxCell id="ZWzc-dM08lgY2boeNIOO-8" value="" style="rounded=1;whiteSpace=wrap;html=1;fillColor=#6d8764;strokeColor=#3A5431;fontColor=#ffffff;" parent="1" vertex="1">
          <mxGeometry x="630" y="200" width="270" height="200" as="geometry" />
        </mxCell>
        <mxCell id="ZWzc-dM08lgY2boeNIOO-9" value="Mysql DB" style="rounded=1;whiteSpace=wrap;html=1;fillColor=#d5e8d4;strokeColor=#82b366;" parent="1" vertex="1">
          <mxGeometry x="705" y="270" width="120" height="60" as="geometry" />
        </mxCell>
        <mxCell id="ZWzc-dM08lgY2boeNIOO-19" value="" style="edgeStyle=orthogonalEdgeStyle;rounded=0;orthogonalLoop=1;jettySize=auto;html=1;strokeColor=#FFFFFF;" parent="1" source="ZWzc-dM08lgY2boeNIOO-10" target="ZWzc-dM08lgY2boeNIOO-6" edge="1">
          <mxGeometry relative="1" as="geometry" />
        </mxCell>
        <mxCell id="ZWzc-dM08lgY2boeNIOO-10" value="Actor" style="shape=umlActor;verticalLabelPosition=bottom;verticalAlign=top;html=1;outlineConnect=0;strokeColor=#FFFFFF;" parent="1" vertex="1">
          <mxGeometry x="20" y="11" width="30" height="60" as="geometry" />
        </mxCell>
        <mxCell id="ZWzc-dM08lgY2boeNIOO-20" value="&lt;h3&gt;&lt;font color=&quot;#ffffff&quot;&gt;Frontend Pod&lt;/font&gt;&lt;/h3&gt;" style="text;html=1;strokeColor=none;fillColor=none;align=center;verticalAlign=middle;whiteSpace=wrap;rounded=0;" parent="1" vertex="1">
          <mxGeometry x="110" y="170" width="115" height="30" as="geometry" />
        </mxCell>
        <mxCell id="ZWzc-dM08lgY2boeNIOO-21" value="&lt;h3&gt;&lt;font color=&quot;#ffffff&quot;&gt;Backend Pod&lt;/font&gt;&lt;/h3&gt;" style="text;html=1;strokeColor=none;fillColor=none;align=center;verticalAlign=middle;whiteSpace=wrap;rounded=0;" parent="1" vertex="1">
          <mxGeometry x="630" y="170" width="115" height="30" as="geometry" />
        </mxCell>
        <mxCell id="MXx2LoYFOpgTJcokJIh7-4" style="edgeStyle=orthogonalEdgeStyle;rounded=0;orthogonalLoop=1;jettySize=auto;html=1;exitX=0.25;exitY=0;exitDx=0;exitDy=0;" edge="1" parent="1" source="ZWzc-dM08lgY2boeNIOO-17" target="ZWzc-dM08lgY2boeNIOO-17">
          <mxGeometry relative="1" as="geometry" />
        </mxCell>
      </root>
    </mxGraphModel>
  </diagram>
</mxfile>
